<svg width="300" height="300" viewBox="-150 -150 300 300" fill="none" stroke="black" xmlns="http://www.w3.org/2000/svg" xmlns:xlink="http://www.w3.org/1999/xlink">
<g transform="scale(1 -1)">
  <g>
    <circle cx="7.34788079488412e-15" cy="120.0" r="1" fill="#444" />
    <circle cx="18.772135804827712" cy="118.52260087141653" r="1" fill="#444" />
    <circle cx="37.082039324993694" cy="114.12678195541842" r="1" fill="#444" />
    <circle cx="54.47885996874562" cy="106.92078290260413" r="1" fill="#444" />
    <circle cx="70.53423027509677" cy="97.0820393249937" r="1" fill="#444" />
    <circle cx="84.8528137423857" cy="84.85281374238569" r="1" fill="#444" />
    <circle cx="97.0820393249937" cy="70.53423027509677" r="1" fill="#444" />
    <circle cx="106.92078290260415" cy="54.47885996874561" r="1" fill="#444" />
    <circle cx="114.12678195541842" cy="37.08203932499369" r="1" fill="#444" />
    <circle cx="118.52260087141653" cy="18.772135804827705" r="1" fill="#444" />
    <circle cx="120.0" cy="0.0" r="1" fill="#444" />
    <circle cx="118.52260087141653" cy="-18.772135804827705" r="1" fill="#444" />
    <circle cx="114.12678195541842" cy="-37.08203932499369" r="1" fill="#444" />
    <circle cx="106.92078290260415" cy="-54.47885996874561" r="1" fill="#444" />
    <circle cx="97.0820393249937" cy="-70.53423027509677" r="1" fill="#444" />
    <circle cx="84.8528137423857" cy="-84.85281374238569" r="1" fill="#444" />
    <circle cx="70.53423027509677" cy="-97.0820393249937" r="1" fill="#444" />
    <circle cx="54.47885996874562" cy="-106.92078290260413" r="1" fill="#444" />
    <circle cx="37.082039324993694" cy="-114.12678195541842" r="1" fill="#444" />
    <circle cx="18.772135804827712" cy="-118.52260087141653" r="1" fill="#444" />
    <circle cx="7.34788079488412e-15" cy="-120.0" r="1" fill="#444" />
    <circle cx="-18.7721358048277" cy="-118.52260087141653" r="1" fill="#444" />
    <circle cx="-37.08203932499368" cy="-114.12678195541844" r="1" fill="#444" />
    <circle cx="-54.4788599687456" cy="-106.92078290260415" r="1" fill="#444" />
    <circle cx="-70.53423027509676" cy="-97.0820393249937" r="1" fill="#444" />
    <circle cx="-84.85281374238569" cy="-84.8528137423857" r="1" fill="#444" />
    <circle cx="-97.08203932499369" cy="-70.53423027509679" r="1" fill="#444" />
    <circle cx="-106.92078290260413" cy="-54.478859968745624" r="1" fill="#444" />
    <circle cx="-114.12678195541842" cy="-37.0820393249937" r="1" fill="#444" />
    <circle cx="-118.52260087141651" cy="-18.772135804827716" r="1" fill="#444" />
    <circle cx="-120.0" cy="-1.469576158976824e-14" r="1" fill="#444" />
    <circle cx="-118.52260087141653" cy="18.772135804827688" r="1" fill="#444" />
    <circle cx="-114.12678195541844" cy="37.08203932499367" r="1" fill="#444" />
    <circle cx="-106.92078290260415" cy="54.4788599687456" r="1" fill="#444" />
    <circle cx="-97.0820393249937" cy="70.53423027509676" r="1" fill="#444" />
    <circle cx="-84.85281374238572" cy="84.85281374238569" r="1" fill="#444" />
    <circle cx="-70.53423027509679" cy="97.08203932499369" r="1" fill="#444" />
    <circle cx="-54.47885996874563" cy="106.92078290260413" r="1" fill="#444" />
    <circle cx="-37.08203932499371" cy="114.12678195541842" r="1" fill="#444" />
    <circle cx="-18.772135804827723" cy="118.52260087141651" r="1" fill="#444" />
    <line x1="7.34788079488412e-15" y1="120.0" x2="7.34788079488412e-15" y2="120.0" stroke-width="0.5" stroke="rgba(72, 26, 132, 0.8)" />
    <line x1="18.772135804827712" y1="118.52260087141653" x2="37.082039324993694" y2="114.12678195541842" stroke-width="0.5" stroke="rgba(72, 26, 132, 0.8)" />
    <line x1="37.082039324993694" y1="114.12678195541842" x2="70.53423027509677" y2="97.0820393249937" stroke-width="0.5" stroke="rgba(72, 26, 132, 0.8)" />
    <line x1="54.47885996874562" y1="106.92078290260413" x2="97.0820393249937" y2="70.53423027509677" stroke-width="0.5" stroke="rgba(72, 26, 132, 0.8)" />
    <line x1="70.53423027509677" y1="97.0820393249937" x2="114.12678195541842" y2="37.08203932499369" stroke-width="0.5" stroke="rgba(72, 26, 132, 0.8)" />
    <line x1="84.8528137423857" y1="84.85281374238569" x2="120.0" y2="0.0" stroke-width="0.5" stroke="rgba(72, 26, 132, 0.8)" />
    <line x1="97.0820393249937" y1="70.53423027509677" x2="114.12678195541842" y2="-37.08203932499369" stroke-width="0.5" stroke="rgba(72, 26, 132, 0.8)" />
    <line x1="106.92078290260415" y1="54.47885996874561" x2="97.0820393249937" y2="-70.53423027509677" stroke-width="0.5" stroke="rgba(72, 26, 132, 0.8)" />
    <line x1="114.12678195541842" y1="37.08203932499369" x2="70.53423027509677" y2="-97.0820393249937" stroke-width="0.5" stroke="rgba(72, 26, 132, 0.8)" />
    <line x1="118.52260087141653" y1="18.772135804827705" x2="37.082039324993694" y2="-114.12678195541842" stroke-width="0.5" stroke="rgba(72, 26, 132, 0.8)" />
    <line x1="120.0" y1="0.0" x2="7.34788079488412e-15" y2="-120.0" stroke-width="0.5" stroke="rgba(72, 26, 132, 0.8)" />
    <line x1="118.52260087141653" y1="-18.772135804827705" x2="-37.08203932499368" y2="-114.12678195541844" stroke-width="0.5" stroke="rgba(72, 26, 132, 0.8)" />
    <line x1="114.12678195541842" y1="-37.08203932499369" x2="-70.53423027509676" y2="-97.0820393249937" stroke-width="0.5" stroke="rgba(72, 26, 132, 0.8)" />
    <line x1="106.92078290260415" y1="-54.47885996874561" x2="-97.08203932499369" y2="-70.53423027509679" stroke-width="0.5" stroke="rgba(72, 26, 132, 0.8)" />
    <line x1="97.0820393249937" y1="-70.53423027509677" x2="-114.12678195541842" y2="-37.0820393249937" stroke-width="0.5" stroke="rgba(72, 26, 132, 0.8)" />
    <line x1="84.8528137423857" y1="-84.85281374238569" x2="-120.0" y2="-1.469576158976824e-14" stroke-width="0.5" stroke="rgba(72, 26, 132, 0.8)" />
    <line x1="70.53423027509677" y1="-97.0820393249937" x2="-114.12678195541844" y2="37.08203932499367" stroke-width="0.5" stroke="rgba(72, 26, 132, 0.8)" />
    <line x1="54.47885996874562" y1="-106.92078290260413" x2="-97.0820393249937" y2="70.53423027509676" stroke-width="0.5" stroke="rgba(72, 26, 132, 0.8)" />
    <line x1="37.082039324993694" y1="-114.12678195541842" x2="-70.53423027509679" y2="97.08203932499369" stroke-width="0.5" stroke="rgba(72, 26, 132, 0.8)" />
    <line x1="18.772135804827712" y1="-118.52260087141653" x2="-37.08203932499371" y2="114.12678195541842" stroke-width="0.5" stroke="rgba(72, 26, 132, 0.8)" />
    <line x1="7.34788079488412e-15" y1="-120.0" x2="7.34788079488412e-15" y2="120.0" stroke-width="0.5" stroke="rgba(72, 26, 132, 0.8)" />
    <line x1="-18.7721358048277" y1="-118.52260087141653" x2="37.082039324993694" y2="114.12678195541842" stroke-width="0.5" stroke="rgba(72, 26, 132, 0.8)" />
    <line x1="-37.08203932499368" y1="-114.12678195541844" x2="70.53423027509677" y2="97.0820393249937" stroke-width="0.5" stroke="rgba(72, 26, 132, 0.8)" />
    <line x1="-54.4788599687456" y1="-106.92078290260415" x2="97.0820393249937" y2="70.53423027509677" stroke-width="0.5" stroke="rgba(72, 26, 132, 0.8)" />
    <line x1="-70.53423027509676" y1="-97.0820393249937" x2="114.12678195541842" y2="37.08203932499369" stroke-width="0.5" stroke="rgba(72, 26, 132, 0.8)" />
    <line x1="-84.85281374238569" y1="-84.8528137423857" x2="120.0" y2="0.0" stroke-width="0.5" stroke="rgba(72, 26, 132, 0.8)" />
    <line x1="-97.08203932499369" y1="-70.53423027509679" x2="114.12678195541842" y2="-37.08203932499369" stroke-width="0.5" stroke="rgba(72, 26, 132, 0.8)" />
    <line x1="-106.92078290260413" y1="-54.478859968745624" x2="97.0820393249937" y2="-70.53423027509677" stroke-width="0.5" stroke="rgba(72, 26, 132, 0.8)" />
    <line x1="-114.12678195541842" y1="-37.0820393249937" x2="70.53423027509677" y2="-97.0820393249937" stroke-width="0.5" stroke="rgba(72, 26, 132, 0.8)" />
    <line x1="-118.52260087141651" y1="-18.772135804827716" x2="37.082039324993694" y2="-114.12678195541842" stroke-width="0.5" stroke="rgba(72, 26, 132, 0.8)" />
    <line x1="-120.0" y1="-1.469576158976824e-14" x2="7.34788079488412e-15" y2="-120.0" stroke-width="0.5" stroke="rgba(72, 26, 132, 0.8)" />
    <line x1="-118.52260087141653" y1="18.772135804827688" x2="-37.08203932499368" y2="-114.12678195541844" stroke-width="0.5" stroke="rgba(72, 26, 132, 0.8)" />
    <line x1="-114.12678195541844" y1="37.08203932499367" x2="-70.53423027509676" y2="-97.0820393249937" stroke-width="0.5" stroke="rgba(72, 26, 132, 0.8)" />
    <line x1="-106.92078290260415" y1="54.4788599687456" x2="-97.08203932499369" y2="-70.53423027509679" stroke-width="0.5" stroke="rgba(72, 26, 132, 0.8)" />
    <line x1="-97.0820393249937" y1="70.53423027509676" x2="-114.12678195541842" y2="-37.0820393249937" stroke-width="0.5" stroke="rgba(72, 26, 132, 0.8)" />
    <line x1="-84.85281374238572" y1="84.85281374238569" x2="-120.0" y2="-1.469576158976824e-14" stroke-width="0.5" stroke="rgba(72, 26, 132, 0.8)" />
    <line x1="-70.53423027509679" y1="97.08203932499369" x2="-114.12678195541844" y2="37.08203932499367" stroke-width="0.5" stroke="rgba(72, 26, 132, 0.8)" />
    <line x1="-54.47885996874563" y1="106.92078290260413" x2="-97.0820393249937" y2="70.53423027509676" stroke-width="0.5" stroke="rgba(72, 26, 132, 0.8)" />
    <line x1="-37.08203932499371" y1="114.12678195541842" x2="-70.53423027509679" y2="97.08203932499369" stroke-width="0.5" stroke="rgba(72, 26, 132, 0.8)" />
    <line x1="-18.772135804827723" y1="118.52260087141651" x2="-37.08203932499371" y2="114.12678195541842" stroke-width="0.5" stroke="rgba(72, 26, 132, 0.8)" />
    <text x="0" y="0" style="font: normal 10px sans-serif;" text-anchor="middle" fill="#888" stroke="none" transform="translate(7.960204194457796e-15 130.0) rotate(360.0) scale(1 -1)">
0    </text>
    <text x="0" y="0" style="font: normal 10px sans-serif;" text-anchor="middle" fill="#888" stroke="none" transform="translate(40.17220926874317 123.63734711836996) rotate(342.0) scale(1 -1)">
2    </text>
    <text x="0" y="0" style="font: normal 10px sans-serif;" text-anchor="middle" fill="#888" stroke="none" transform="translate(76.4120827980215 105.17220926874317) rotate(324.0) scale(1 -1)">
4    </text>
    <text x="0" y="0" style="font: normal 10px sans-serif;" text-anchor="middle" fill="#888" stroke="none" transform="translate(105.17220926874317 76.4120827980215) rotate(306.0) scale(1 -1)">
6    </text>
    <text x="0" y="0" style="font: normal 10px sans-serif;" text-anchor="middle" fill="#888" stroke="none" transform="translate(123.63734711836996 40.17220926874316) rotate(288.0) scale(1 -1)">
8    </text>
    <text x="0" y="0" style="font: normal 10px sans-serif;" text-anchor="middle" fill="#888" stroke="none" transform="translate(130.0 0.0) rotate(270.0) scale(1 -1)">
10    </text>
    <text x="0" y="0" style="font: normal 10px sans-serif;" text-anchor="middle" fill="#888" stroke="none" transform="translate(123.63734711836996 -40.17220926874316) rotate(252.0) scale(1 -1)">
12    </text>
    <text x="0" y="0" style="font: normal 10px sans-serif;" text-anchor="middle" fill="#888" stroke="none" transform="translate(105.17220926874317 -76.4120827980215) rotate(234.0) scale(1 -1)">
14    </text>
    <text x="0" y="0" style="font: normal 10px sans-serif;" text-anchor="middle" fill="#888" stroke="none" transform="translate(76.4120827980215 -105.17220926874317) rotate(216.0) scale(1 -1)">
16    </text>
    <text x="0" y="0" style="font: normal 10px sans-serif;" text-anchor="middle" fill="#888" stroke="none" transform="translate(40.17220926874317 -123.63734711836996) rotate(198.0) scale(1 -1)">
18    </text>
    <text x="0" y="0" style="font: normal 10px sans-serif;" text-anchor="middle" fill="#888" stroke="none" transform="translate(7.960204194457796e-15 -130.0) rotate(180.0) scale(1 -1)">
20    </text>
    <text x="0" y="0" style="font: normal 10px sans-serif;" text-anchor="middle" fill="#888" stroke="none" transform="translate(-40.17220926874315 -123.63734711836997) rotate(162.0) scale(1 -1)">
22    </text>
    <text x="0" y="0" style="font: normal 10px sans-serif;" text-anchor="middle" fill="#888" stroke="none" transform="translate(-76.41208279802149 -105.17220926874317) rotate(144.0) scale(1 -1)">
24    </text>
    <text x="0" y="0" style="font: normal 10px sans-serif;" text-anchor="middle" fill="#888" stroke="none" transform="translate(-105.17220926874316 -76.41208279802152) rotate(126.0) scale(1 -1)">
26    </text>
    <text x="0" y="0" style="font: normal 10px sans-serif;" text-anchor="middle" fill="#888" stroke="none" transform="translate(-123.63734711836996 -40.172209268743174) rotate(108.0) scale(1 -1)">
28    </text>
    <text x="0" y="0" style="font: normal 10px sans-serif;" text-anchor="middle" fill="#888" stroke="none" transform="translate(-130.0 -1.592040838891559e-14) rotate(90.0) scale(1 -1)">
30    </text>
    <text x="0" y="0" style="font: normal 10px sans-serif;" text-anchor="middle" fill="#888" stroke="none" transform="translate(-123.63734711836997 40.172209268743146) rotate(72.0) scale(1 -1)">
32    </text>
    <text x="0" y="0" style="font: normal 10px sans-serif;" text-anchor="middle" fill="#888" stroke="none" transform="translate(-105.17220926874319 76.41208279802149) rotate(54.0) scale(1 -1)">
34    </text>
    <text x="0" y="0" style="font: normal 10px sans-serif;" text-anchor="middle" fill="#888" stroke="none" transform="translate(-76.41208279802152 105.17220926874316) rotate(36.0) scale(1 -1)">
36    </text>
    <text x="0" y="0" style="font: normal 10px sans-serif;" text-anchor="middle" fill="#888" stroke="none" transform="translate(-40.17220926874318 123.63734711836996) rotate(18.0) scale(1 -1)">
38    </text>
  </g>
</g>
</svg>

