<svg width="300" height="300" viewBox="-150 -150 300 300" fill="none" stroke="black" xmlns="http://www.w3.org/2000/svg" xmlns:xlink="http://www.w3.org/1999/xlink">
<g transform="scale(1 -1)">
  <g>
    <circle cx="7.34788079488412e-15" cy="120.0" r="1" fill="#444" />
    <circle cx="77.13451316238472" cy="91.92533317427736" r="1" fill="#444" />
    <circle cx="118.17693036146497" cy="20.83778132003164" r="1" fill="#444" />
    <circle cx="103.92304845413264" cy="-59.99999999999998" r="1" fill="#444" />
    <circle cx="41.04241719908026" cy="-112.763114494309" r="1" fill="#444" />
    <circle cx="-41.04241719908025" cy="-112.76311449430901" r="1" fill="#444" />
    <circle cx="-103.92304845413261" cy="-60.00000000000004" r="1" fill="#444" />
    <circle cx="-118.17693036146497" cy="20.837781320031603" r="1" fill="#444" />
    <circle cx="-77.13451316238474" cy="91.92533317427734" r="1" fill="#444" />
    <text x="0" y="0" style="font: normal 10px sans-serif;" text-anchor="middle" fill="#888" stroke="none" transform="translate(7.960204194457796e-15 130.0) rotate(360.0) scale(1 -1)">
0    </text>
    <text x="0" y="0" style="font: normal 10px sans-serif;" text-anchor="middle" fill="#888" stroke="none" transform="translate(83.56238925925011 99.58577760546714) rotate(320.0) scale(1 -1)">
1    </text>
    <text x="0" y="0" style="font: normal 10px sans-serif;" text-anchor="middle" fill="#888" stroke="none" transform="translate(128.02500789158705 22.574263096700946) rotate(280.0) scale(1 -1)">
2    </text>
    <text x="0" y="0" style="font: normal 10px sans-serif;" text-anchor="middle" fill="#888" stroke="none" transform="translate(112.58330249197704 -64.99999999999997) rotate(240.0) scale(1 -1)">
3    </text>
    <text x="0" y="0" style="font: normal 10px sans-serif;" text-anchor="middle" fill="#888" stroke="none" transform="translate(44.46261863233695 -122.16004070216808) rotate(200.0) scale(1 -1)">
4    </text>
    <text x="0" y="0" style="font: normal 10px sans-serif;" text-anchor="middle" fill="#888" stroke="none" transform="translate(-44.462618632336934 -122.16004070216809) rotate(160.0) scale(1 -1)">
5    </text>
    <text x="0" y="0" style="font: normal 10px sans-serif;" text-anchor="middle" fill="#888" stroke="none" transform="translate(-112.58330249197701 -65.00000000000004) rotate(120.0) scale(1 -1)">
6    </text>
    <text x="0" y="0" style="font: normal 10px sans-serif;" text-anchor="middle" fill="#888" stroke="none" transform="translate(-128.02500789158705 22.574263096700903) rotate(80.0) scale(1 -1)">
7    </text>
    <text x="0" y="0" style="font: normal 10px sans-serif;" text-anchor="middle" fill="#888" stroke="none" transform="translate(-83.56238925925012 99.58577760546713) rotate(40.0) scale(1 -1)">
8    </text>
  </g>
</g>
</svg>

